<svg width="30" height="32" viewBox="0 0 30 32" fill="none" xmlns="http://www.w3.org/2000/svg">
<path fill-rule="evenodd" clip-rule="evenodd" d="M16.8307 2.00004C14.7885 1.99472 12.7738 2.47187 10.9509 3.39264L10.9471 3.39456L10.9471 3.39455C8.76025 4.48749 6.92091 6.16768 5.63506 8.24692C4.34921 10.3262 3.66764 12.7224 3.66669 15.1671L3.66669 15.1693C3.66136 17.2116 4.13852 19.2262 5.05929 21.0492C5.1795 21.2872 5.19969 21.5633 5.11537 21.8162L2.58117 29.4189L10.1838 26.8847C10.4367 26.8003 10.7129 26.8205 10.9509 26.9407C12.7738 27.8615 14.7885 28.3387 16.8307 28.3333L16.8329 28.3333C19.2777 28.3324 21.6739 27.6508 23.7531 26.365C25.8323 25.0791 27.5125 23.2398 28.6055 21.053L28.6074 21.0492C29.5282 19.2262 30.0053 17.2116 30 15.1693L30 15.1667V14.3614C29.8158 11.1433 28.4545 8.10496 26.1748 5.82525C23.8951 3.54553 20.8567 2.18423 17.6386 2.00005H16.8333L16.8307 2.00004ZM16.8346 4.74825e-05C14.4785 -0.00588693 12.1543 0.544526 10.0511 1.60649C7.53289 2.86547 5.41485 4.8005 3.93405 7.19498C2.45307 9.58975 1.66799 12.3495 1.66669 15.1652C1.66108 17.3811 2.14758 19.5688 3.08892 21.571L0.0513439 30.6838C-0.0684344 31.0431 0.025088 31.4393 0.29292 31.7071C0.560753 31.9749 0.95692 32.0685 1.31625 31.9487L10.429 28.9111C12.4311 29.8524 14.6187 30.3389 16.8346 30.3333" fill="#2D74FF"/>
</svg>
