<svg width="32" height="32" viewBox="0 0 32 32" fill="none" xmlns="http://www.w3.org/2000/svg">
<path fill-rule="evenodd" clip-rule="evenodd" d="M31.7071 0.292893C32.0976 0.683417 32.0976 1.31658 31.7071 1.70711L15.2071 18.2071C14.8166 18.5976 14.1834 18.5976 13.7929 18.2071C13.4024 17.8166 13.4024 17.1834 13.7929 16.7929L30.2929 0.292893C30.6834 -0.0976311 31.3166 -0.0976311 31.7071 0.292893Z" fill="#2D74FF"/>
<path fill-rule="evenodd" clip-rule="evenodd" d="M31.7071 0.292921C31.9788 0.564559 32.0708 0.967791 31.9439 1.33038L21.4439 31.3304C21.3084 31.7174 20.9504 31.9825 20.5408 31.9992C20.1311 32.0159 19.7527 31.7808 19.5862 31.4062L13.7424 18.2576L0.593867 12.4138C0.219186 12.2473 -0.0158775 11.8689 0.000836285 11.4593C0.0175501 11.0496 0.282654 10.6916 0.669655 10.5562L30.6697 0.0561695C31.0322 -0.0707359 31.4355 0.0212832 31.7071 0.292921ZM3.71108 11.6106L14.9061 16.5862C15.1324 16.6868 15.3133 16.8677 15.4138 17.0939L20.3894 28.289L29.37 2.63L3.71108 11.6106Z" fill="#2D74FF"/>
</svg>
